<?xml version="1.0" encoding="UTF-8" standalone="no"?>
<!-- Created with Inkscape (http://www.inkscape.org/) -->

<svg
   width="211.66667mm"
   height="211.66667mm"
   viewBox="0 0 211.66667 211.66667"
   version="1.1"
   id="svg1"
   xml:space="preserve"
   inkscape:version="1.3.2 (091e20e, 2023-11-25, custom)"
   sodipodi:docname="SnapTunes.svg"
   xmlns:inkscape="http://www.inkscape.org/namespaces/inkscape"
   xmlns:sodipodi="http://sodipodi.sourceforge.net/DTD/sodipodi-0.dtd"
   xmlns="http://www.w3.org/2000/svg"
   xmlns:svg="http://www.w3.org/2000/svg"><sodipodi:namedview
     id="namedview1"
     pagecolor="#505050"
     bordercolor="#ffffff"
     borderopacity="1"
     inkscape:showpageshadow="0"
     inkscape:pageopacity="0"
     inkscape:pagecheckerboard="1"
     inkscape:deskcolor="#505050"
     inkscape:document-units="mm"
     showguides="true"
     inkscape:zoom="0.87811988"
     inkscape:cx="-164.55612"
     inkscape:cy="326.26525"
     inkscape:window-width="1920"
     inkscape:window-height="974"
     inkscape:window-x="-11"
     inkscape:window-y="-11"
     inkscape:window-maximized="1"
     inkscape:current-layer="layer1"
     showborder="true" /><defs
     id="defs1" /><g
     inkscape:label="Layer 1"
     inkscape:groupmode="layer"
     id="layer1"
     transform="translate(521.69194,151.94177)"><path
       id="path1"
       style="fill:#000000;fill-opacity:1;stroke:none;stroke-width:10.6862;stroke-linecap:round;stroke-linejoin:round"
       d="M -415.85862,-151.94177 A 105.83334,105.83334 0 0 0 -521.69195,-46.108437 105.83334,105.83334 0 0 0 -415.85862,59.724897 105.83334,105.83334 0 0 0 -310.02528,-46.108437 105.83334,105.83334 0 0 0 -415.85862,-151.94177 Z m -51.16897,29.83901 h 21.04161 c 2.1751,0 3.96824,1.79364 3.96824,3.96875 0,1.50842 -0.86364,2.83129 -2.1177,3.50159 0.11675,0.222 0.18138,0.45624 0.18138,0.69867 v 1.41645 h 44.79778 v -4.72271 c 0,-1.90395 1.86546,-3.48351 4.11293,-3.48351 h 29.96045 c 2.24742,0 4.11241,1.57956 4.11241,3.48351 v 4.72271 h 0.42426 c 9.91898,0 17.96066,8.04167 17.96066,17.960658 v 13.143383 c 0.64228,0.268384 1.51083,0.659299 2.41329,1.153935 0.89004,0.487798 1.82633,1.073822 2.65979,1.816944 0.83344,0.743127 1.64106,1.662098 1.91874,3.006018 1.47364,7.131837 1.40221,13.062327 0.3235,20.475752 -0.40752,2.800636 -2.59893,4.403226 -4.408,5.740735 -1.16922,0.864436 -2.25179,1.510288 -2.90732,1.883089 V 11.92213 c 0,9.918989 -8.04168,17.963244 -17.96066,17.963244 h -110.60049 c -9.91903,0 -17.96117,-8.044255 -17.96117,-17.963244 v -59.200004 c -0.65192,-0.36993 -1.74793,-1.022684 -2.93057,-1.897042 -1.80907,-1.337511 -4.001,-2.940106 -4.40852,-5.740735 -1.07872,-7.413426 -1.14961,-13.343918 0.32401,-20.475753 0.27768,-1.343922 1.08787,-2.263408 1.92133,-3.006535 0.83345,-0.74312 1.76665,-1.328628 2.65669,-1.816426 0.91649,-0.502298 1.79216,-0.896202 2.43706,-1.164787 v -13.17749 c 0,-9.918988 8.04214,-17.960658 17.96117,-17.960658 h 2.08722 v -1.41645 c 0,-0.24243 0.0641,-0.47667 0.18086,-0.69867 -1.25404,-0.6703 -2.11718,-1.99317 -2.11718,-3.50159 0,-2.17511 1.79312,-3.96875 3.96823,-3.96875 z m 0,2.68769 c -0.73251,0 -1.28106,0.54854 -1.28106,1.28106 0,0.73251 0.54855,1.27847 1.28106,1.27847 h 21.04161 c 0.73249,0 1.28054,-0.54596 1.28054,-1.27847 0,-0.73252 -0.54805,-1.28106 -1.28054,-1.28106 z m 71.98424,1.64279 c -0.37743,0 -0.62684,0.21251 -0.62684,0.53227 v 4.72271 h 31.2136 v -4.72271 c 0,-0.31976 -0.24888,-0.53227 -0.62631,-0.53227 z m -69.90374,3.64112 c -0.21798,0 -0.33538,0.0693 -0.33538,0.19741 v 1.41645 h 17.55138 v -1.41645 c 0,-0.12804 -0.1179,-0.19741 -0.3359,-0.19741 z m -6.19963,5.30252 c -7.93909,0 -14.27199,6.33296 -14.27199,14.271998 v 14.457515 a 2.0197882,2.0197882 0 0 1 0.0145,0.238745 l -0.0145,3.13986 V 11.92213 c 0,7.939048 6.3329,14.272514 14.27199,14.272514 h 110.60049 c 7.93909,0 14.27251,-6.333466 14.27251,-14.272514 v -83.584563 l -0.0387,-8.242907 a 2.0197882,2.0197882 0 0 1 0.0387,-0.205156 v -14.446146 c 0,-7.939038 -6.33342,-14.271998 -14.27251,-14.271998 z m 0.45114,6.86005 h 11.38328 c 4.16653,0 7.57939,3.412855 7.57939,7.579379 0,4.166523 -3.41286,7.580416 -7.57939,7.580416 h -11.38328 c -4.16652,0 -7.57938,-3.413893 -7.57938,-7.580416 0,-4.166524 3.41286,-7.579379 7.57938,-7.579379 z m 26.59889,1.75596 h 5.43481 v 0.776182 h 0.7767 v 0.77618 h 0.77618 v 2.329574 h -2.32957 v -0.776697 h -0.77618 v -0.77618 h -2.32906 v 0.77618 h -0.77618 v 0.776697 h 0.77618 v 0.776697 h 3.88193 v 0.77618 h 0.7767 v 0.77618 h 0.77618 v 3.881933 h -0.77618 v 0.77618 h -0.7767 v 0.77618 h -5.43481 v -0.77618 h -0.77618 v -0.77618 h -0.77618 v -2.329057 h 2.32906 v 0.77618 h 0.77618 v 0.77618 h 2.32906 v -0.77618 h 0.77618 v -0.77618 h -0.77618 v -0.776696 h -3.88194 v -0.77618 h -0.77618 v -0.77618 h -0.77618 v -3.882451 h 0.77618 v -0.77618 h 0.77618 z m 9.58857,0 h 3.10523 v 0.776182 0.77618 h 0.77618 v 1.552877 h 0.77618 v 1.553394 h 0.7767 v 1.55236 h 0.7767 v -6.210993 h 2.32905 v 11.645286 h -3.10575 v -1.55236 h -0.7767 v -1.552877 h -0.77618 v -1.552876 h -0.77618 v -1.55236 h -0.77669 v 6.210473 h -2.32854 z m 14.24615,0 h 1.55236 v 0.776182 h 0.77618 v 0.77618 h 0.77722 v 0.776697 h 0.77618 v 0.77618 h 0.77618 v 8.540047 h -2.32958 v -3.105237 h -3.10523 v 3.105237 h -2.32906 v -8.540047 h 0.7767 v -0.77618 h 0.77618 v -0.776697 h 0.77618 v -0.77618 h 0.77669 z m 7.25899,0 h 6.21099 v 0.776182 h 0.7767 v 0.77618 h 0.77618 v 4.658631 h -0.77618 v 0.77618 h -0.7767 v 0.776696 h -3.88193 v 3.881417 h -2.32906 z m 10.36474,0 h 6.98718 v 2.329059 h -2.32958 v 9.316227 h -2.32906 v -9.316227 h -2.32854 z m 9.58805,0 h 2.32906 v 8.540049 h 0.77618 v 0.77618 h 1.55236 v -0.77618 h 0.77669 v -8.540049 h 2.32958 v 10.092926 h -0.77722 v 0.77618 h -0.77618 v 0.77618 h -4.65811 v -0.77618 h -0.77618 v -0.77618 h -0.77618 z m 10.36423,0 h 3.10523 v 1.552362 h 0.7767 v 1.552877 h 0.77618 v 1.553394 h 0.77618 v 1.55236 h 0.7767 v -6.210993 h 2.32957 v 11.645286 h -3.10627 v -1.55236 h -0.77618 v -1.552877 h -0.77618 v -1.552876 h -0.7767 v -1.55236 h -0.77618 v 6.210473 h -2.32905 z m 11.14092,0 h 6.98768 v 2.329059 h -4.65863 v 2.329574 h 3.88142 v 2.32854 h -3.88142 v 2.329056 h 4.65863 v 2.329057 h -6.98768 z m 11.14092,0 h 5.43429 v 0.776182 h 0.7767 v 0.77618 h 0.7767 v 2.329574 h -2.32958 v -0.776697 h -0.77669 v -0.77618 h -2.32854 v 0.77618 h -0.7767 v 0.776697 h 0.7767 v 0.776697 h 3.88141 v 0.77618 h 0.7767 v 0.77618 h 0.7767 v 3.881933 h -0.7767 v 0.77618 h -0.7767 v 0.77618 h -5.43429 v -0.77618 h -0.77618 v -0.77618 h -0.7767 v -2.329057 h 2.32906 v 0.77618 h 0.7767 v 0.77618 h 2.32854 v -0.77618 h 0.77669 v -0.77618 h -0.77669 v -0.776696 h -3.88142 v -0.77618 h -0.77618 v -0.77618 h -0.7767 v -3.882451 h 0.7767 v -0.77618 h 0.77618 z m -110.29146,2.020551 c -2.1391,0 -3.80183,1.663765 -3.80183,3.802868 0,2.139102 1.66273,3.800802 3.80183,3.800802 h 11.38328 c 2.1391,0 3.80029,-1.6617 3.80029,-3.800802 0,-2.139103 -1.66119,-3.802868 -3.80029,-3.802868 z m 60.02166,0.308508 v 3.105754 h 2.32906 v -0.77618 h 0.77618 v -1.553394 h -0.77618 v -0.77618 z m -9.58805,0.77618 v 0.776697 h -0.77669 v 2.329057 h 3.10523 v -2.329057 h -0.77618 v -0.776697 z m 5.26893,14.515393 c 28.67933,0 51.97099,23.292111 51.97099,51.971505 0,28.6793929 -23.29166,51.969437 -51.97099,51.969437 -28.67943,0 -51.96943,-23.2900441 -51.96943,-51.969437 0,-11.047653 3.4675,-21.287685 9.35601,-29.712915 -0.8275,-1.333311 -1.30793,-2.901975 -1.30793,-4.576982 0,-4.79894 3.93184,-8.730216 8.73074,-8.730216 1.59211,0 3.08674,0.43504 4.37596,1.188558 8.62539,-6.368173 19.28226,-10.13995 30.81465,-10.13995 z m 0,3.777547 c -10.45107,1e-6 -20.1112,3.329301 -28.00242,8.970512 0.94837,1.374437 1.5069,3.031901 1.5322,4.811593 6.3231,-5.043024 13.59911,-8.779091 22.16713,-9.568925 l 2.88354,-0.266651 v 1.891875 1.891874 l -4.01267,0.567407 c -9.1271,1.290753 -16.04626,4.593128 -22.91953,11.003979 -0.47462,0.599222 -1.02709,1.132149 -1.6397,1.590084 -3.79633,3.795204 -5.29294,5.712667 -6.88433,8.809798 -2.58865,5.038223 -4.05232,9.486358 -4.47363,13.598654 l -0.32815,3.201355 h -2.00763 -2.00866 l 0.31833,-3.047876 c 0.8369,-8.007423 4.64165,-14.890815 9.75134,-20.850924 -1.58485,-0.0798 -3.06738,-0.568342 -4.32325,-1.390613 -5.20496,7.696648 -8.24497,16.980443 -8.24497,26.981816 0,26.6378613 21.55452,48.19189 48.1924,48.19189 26.63779,0 48.19189,-21.5540287 48.19189,-48.19189 0,-26.637872 -21.5541,-48.193958 -48.19189,-48.193958 z m 72.732,2.031918 0.11627,24.355619 c 0.033,-0.02411 0.0326,-0.01742 0.0656,-0.04186 1.51642,-1.121135 2.76478,-2.758941 2.81068,-3.074231 1.03977,-7.145687 1.10168,-12.391093 -0.27957,-19.075838 -0.003,-0.01263 -0.17466,-0.383223 -0.65422,-0.810803 -0.47956,-0.427588 -1.19152,-0.8929 -1.91203,-1.287777 -0.0738,-0.04051 -0.0732,-0.02613 -0.14676,-0.06511 z m -147.19567,0.04496 c -0.0735,0.03896 -0.0722,0.02462 -0.14624,0.06511 -0.72049,0.394878 -1.43248,0.860196 -1.91203,1.287777 -0.47956,0.427587 -0.64964,0.797667 -0.65164,0.810287 -1.38124,6.684744 -1.3214,11.930667 -0.28164,19.076355 0.0459,0.315288 1.29427,1.953097 2.81068,3.07423 0.0331,0.02444 0.0315,0.01776 0.0646,0.04186 l 0.1173,-24.355619 z m 75.45018,1.869653 2.88354,0.266651 c 21.41002,1.973534 38.92585,18.708358 41.07191,39.240499 l 0.31885,3.047876 h -2.00815 -2.00866 l -0.32763,-3.201355 c -0.42132,-4.112295 -1.88438,-8.560431 -4.47311,-13.598654 -1.62298,-3.158632 -3.13341,-5.078523 -7.09983,-9.026839 -7.35257,-7.319048 -14.58638,-10.997064 -24.34425,-12.377022 l -4.01267,-0.567407 v -1.891874 z m -36.17712,5.004346 c -2.75734,0 -4.95319,2.195769 -4.95319,4.953186 0,2.757417 2.19585,4.951119 4.95319,4.951119 2.75742,0 4.95267,-2.193702 4.95267,-4.951119 0,-2.757417 -2.19525,-4.953186 -4.95267,-4.953186 z m 34.92345,1.944584 c 1.13624,0 3.25975,2.271431 3.25975,3.487126 0,1.409906 -1.74385,3.032373 -3.25975,3.032373 -0.68957,0 -1.70506,-0.451903 -2.25671,-1.003556 -0.55163,-0.551636 -1.00304,-1.464639 -1.00304,-2.028817 0,-1.215695 2.12352,-3.487126 3.25975,-3.487126 z m -11.88972,4.710307 c 0.24236,-0.01406 0.45489,0.0055 0.63304,0.06201 1.84098,0.584333 0.81824,1.906874 -3.23133,4.176489 -7.22258,4.048011 -13.85452,11.556041 -16.14475,18.277437 -0.64632,1.896852 -1.03169,2.361613 -1.9575,2.361613 -0.63411,0 -1.27161,-0.309667 -1.41697,-0.68833 -0.33128,-0.863371 2.53208,-7.513721 4.66897,-10.843782 3.4126,-5.318049 13.81303,-13.134671 17.44854,-13.345439 z m 11.40654,5.114417 c 6.01868,-0.168434 12.14968,1.556821 17.37517,5.0307 10.19969,6.780748 14.95174,20.196033 10.9461,30.90199 -1.01008,2.699671 -3.87361,7.210449 -4.30413,6.779948 -0.11706,-0.117105 0.33864,-1.57187 1.01337,-3.232361 1.55802,-3.834311 2.54089,-9.108885 2.04794,-10.992094 -0.32845,-1.254802 -0.50126,-0.868268 -1.26349,2.831352 -1.13092,5.489316 -2.82484,9.03183 -6.04976,12.649874 -3.17728,3.564498 -6.31059,5.7612831 -10.25002,7.1876747 -3.40172,1.231758 -3.90247,2.3182523 -1.25935,2.732133 l 1.75545,0.2744018 -2.65721,0.603064 c -3.54043,0.8030061 -10.22839,0.7091517 -13.64102,-0.1912028 -7.8685,-2.0758836 -15.09178,-7.9400607 -18.27072,-14.8332027 -3.85967,-8.369424 -3.67761,-17.039038 0.52555,-25.037749 3.31062,-6.300073 8.81361,-10.873158 15.98972,-13.287561 2.59362,-0.872617 5.3066,-1.340408 8.0424,-1.416967 z m -4.85707,6.088 c -1.50321,-0.01493 -3.25413,0.419293 -5.12113,1.332735 -5.7,2.788729 -11.41121,10.960332 -10.61744,15.191321 0.57764,3.079431 4.19314,4.628361 6.70192,2.871143 0.62806,-0.439914 1.6634,-1.963976 2.30063,-3.38584 1.44426,-3.22252 2.65594,-4.332801 6.96237,-6.380489 3.79154,-1.802907 5.14684,-3.550933 4.61832,-5.957259 -0.52169,-2.375244 -2.33928,-3.646741 -4.84467,-3.671611 z m 10.86911,6.38669 c -0.69115,0.03933 -1.18764,1.293938 -1.16634,3.182235 0.0152,1.293166 -0.002,5.918137 -0.0367,10.277926 l -0.063,7.927164 -1.11467,-0.780831 c -2.605,-1.824629 -7.56319,-0.369712 -9.14156,2.682524 -1.84569,3.569168 -0.33438,6.904774 3.73673,8.246008 1.44019,0.474456 2.30898,0.319059 4.50308,-0.802018 4.11555,-2.102915 4.25174,-2.539424 4.42712,-14.202234 0.0847,-5.634938 0.26305,-10.244852 0.39636,-10.244852 0.13315,0 0.88215,0.472703 1.6645,1.051098 0.78235,0.578401 1.84298,0.971168 2.35644,0.872298 1.6107,-0.310194 1.30772,-1.621437 -0.61856,-2.675805 -1.05707,-0.578603 -2.28133,-1.85062 -2.89285,-3.006018 -0.58301,-1.10153 -1.27803,-2.161055 -1.54461,-2.353862 -0.17627,-0.127477 -0.34642,-0.182733 -0.50591,-0.173633 z m 27.92026,2.775025 a 1.7683313,1.7683313 0 0 1 1.76836,1.768367 1.7683313,1.7683313 0 0 1 -1.76836,1.768368 1.7683313,1.7683313 0 0 1 -1.76785,-1.768368 1.7683313,1.7683313 0 0 1 1.76785,-1.768367 z m 1.9451,9.03459 c 3.5313,0.02228 4.38092,4.476589 1.13585,5.955192 -0.67213,0.30622 -1.26754,0.539052 -1.32344,0.517282 -0.0559,-0.02172 -0.44098,-0.161135 -0.85473,-0.309026 -3.1755,-1.13492 -2.32162,-6.184738 1.04232,-6.163448 z m -70.42878,0.01809 c 1.78894,0.02454 3.18947,1.324974 3.18947,3.268018 0,1.895751 -2.45982,3.391025 -4.39508,2.671671 -2.21611,-0.823733 -2.476,-4.83643 -0.36587,-5.646167 0.53951,-0.207026 1.07056,-0.300422 1.57148,-0.293522 z m -10.44897,4.487582 h 1.95337 1.95285 l 0.58343,4.004923 c 3.63533,24.94174656 28.61986,40.749633 53.02983,33.5529907 11.88352,-3.5035249 22.40386,-13.1027146 26.75599,-24.4140137 1.54661,-4.019624 2.58124,-8.621968 2.58124,-11.480436 0,-1.615585 0.0593,-1.663464 2.07791,-1.663464 h 2.07791 l -0.31729,3.385323 c -1.49908,15.9975663 -12.91692,30.7163936 -28.49542,36.733675 -6.83729,2.640963 -17.37374,3.711567 -24.57421,2.496488 -6.06837,-1.02405 -13.14088,-3.8839754 -18.28106,-7.3923135 -3.37185,-2.3014213 -9.25551,-8.2529849 -11.68094,-11.8158162 -3.63713,-5.3425983 -6.61351,-13.5761123 -7.32875,-20.2726643 z m 24.64914,0.01292 c -0.13613,-0.0025 -0.28348,0.09678 -0.4563,0.271818 -0.61487,0.62271 0.28876,4.757916 1.77663,8.13077 0.64253,1.456545 2.45257,3.995628 4.02301,5.642032 2.86792,3.006715 3.25749,3.274408 3.87108,2.66082 0.18282,-0.182834 -0.87951,-1.603686 -2.36109,-3.156913 -3.1609,-3.313908 -4.561,-5.859686 -5.54695,-10.086206 -0.59094,-2.533127 -0.89797,-3.454821 -1.30638,-3.462321 z m 54.27214,6.255949 c 0.99388,0 1.15444,0.238 1.09244,1.617989 -0.096,2.135276 -2.66211,7.549037 -5.39192,11.374499 -3.93813,5.5188652 -9.44227,9.78360637 -15.63626,12.1150229 -1.78435,0.6716301 -3.29575,1.2025895 -3.35845,1.1808065 -0.063,-0.021723 -0.39574,-0.1527887 -0.74052,-0.2919718 -0.93552,-0.377465 -0.75681,-2.16309441 0.25063,-2.50320643 0.48269,-0.16300141 2.69659,-1.15660844 4.9196,-2.20865067 7.16811,-3.3923344 13.35413,-10.1170605 16.32096,-17.7425865 1.15803,-2.976417 1.56394,-3.541902 2.54352,-3.541902 z m -14.12007,12.167216 c 0.16961,0.0022 0.34069,0.03316 0.50746,0.09715 0.62053,0.238156 0.93192,0.915084 0.81132,1.7642336 -0.2438,1.7168162 -2.6075,2.2276353 -3.19722,0.6909139 -0.45375,-1.1824695 0.69126,-2.5674285 1.87844,-2.5522985 z m -38.94026,7.1401322 c 1.78605,0 2.42989,2.6470606 0.84956,3.49281001 -1.2545,0.67137729 -1.32127,0.66357595 -2.25361,-0.26871744 -0.43342,-0.43343643 -0.78806,-0.98162147 -0.78806,-1.21801347 0,-0.6440729 1.48824,-2.0060791 2.19211,-2.0060791 z m 19.55591,4.51858719 c 0.79728,-0.0148844 1.62644,0.30093571 2.32338,0.99787191 1.23571,1.235725 1.2786,2.5785183 0.12505,3.9124227 -1.48389,1.7161151 -2.94955,1.8341408 -4.42763,0.3560506 -1.02085,-1.0209156 -1.23814,-1.6088934 -0.98392,-2.6639201 0.39364,-1.6336421 1.63432,-2.57761403 2.96312,-2.60242511 z" /></g></svg>
